<svg id="Layer_1" data-name="Layer 1" xmlns="http://www.w3.org/2000/svg" xmlns:xlink="http://www.w3.org/1999/xlink" viewBox="0 0 400 150"><defs><style>.cls-1{fill:none;}.cls-2{fill:#fff;}.cls-3{clip-path:url(#clip-path);}.cls-4{fill:#0072bc;}</style><clipPath id="clip-path"><path class="cls-1" d="M226.41,54.15l-88,14A2.91,2.91,0,0,0,136,71.51l9.21,58.13a2.88,2.88,0,0,0,3.38,2.45l88-13.93a2.86,2.86,0,0,0,2.42-3.38l-9.21-58.14A2.94,2.94,0,0,0,227,54.13a3.05,3.05,0,0,0-.6.06"/></clipPath></defs><title>graphic-spending-inverted</title><path class="cls-1" d="M194.92,25.64,157.59,90.29s-2.54,4.41,1.85,6.95l39.92,23s4.4,2.54,6.95-1.86l37.32-64.66s2.54-4.4-1.85-6.94l-39.92-23A6.2,6.2,0,0,0,199,23a4.6,4.6,0,0,0-4.12,2.6"/><path class="cls-1" d="M221.51,22.9l-48,57.19s-3.27,3.9.62,7.16l35.31,29.63s3.89,3.26,7.16-.63l48-57.19s3.27-3.9-.63-7.17l-35.3-29.62A6,6,0,0,0,225.2,21a4.72,4.72,0,0,0-3.69,1.91"/><path class="cls-1" d="M192.94,101.87l19.37,16.25A4.34,4.34,0,0,0,214,118l51.8-61.73A4.58,4.58,0,0,0,264,51.9L246.89,37.59Z"/><path class="cls-2" d="M263.69,48.84,248.28,35.91,230,57.74l5.5,34.72,29-34.56a6.41,6.41,0,0,0-.78-9Zm-10.4,11a6.75,6.75,0,0,1-4.7,2.41,6.73,6.73,0,1,1-7.4-6l.25,0a6.73,6.73,0,1,1,11.85,3.62Z"/><g class="cls-3"><path class="cls-2" d="M150.3,107.39a1.67,1.67,0,0,1-1.66-1.41l-1.84-11.6a1.68,1.68,0,0,1,3.32-.53l1.79,11.61a1.67,1.67,0,0,1-1.38,1.91h0Z"/><path class="cls-2" d="M168.93,122.48a1.68,1.68,0,0,1-.26-3.34l10.45-1.65a1.68,1.68,0,0,1,.74,3.28l-.22,0-10.45,1.66Zm17.57-2.78a1.68,1.68,0,0,1-.27-3.34l10.45-1.65a1.68,1.68,0,1,1,.52,3.31l-10.44,1.66Zm17.57-2.78a1.68,1.68,0,0,1-.26-3.34l10.44-1.65a1.68,1.68,0,1,1,.74,3.27l-.21,0-10.45,1.65-.26,0Z"/><path class="cls-4" d="M227.58,95.16a1.7,1.7,0,0,1-1.66-1.43l-1.84-11.6a1.68,1.68,0,1,1,3.28-.74,1.46,1.46,0,0,1,0,.22l1.84,11.6a1.67,1.67,0,0,1-1.38,1.92h0Z"/><path class="cls-2" d="M161.55,75.68a1.68,1.68,0,0,1-.26-3.34l10.45-1.65a1.68,1.68,0,0,1,.53,3.32l-10.45,1.65Zm17.57-2.78a1.68,1.68,0,0,1-.26-3.34l10.44-1.65a1.68,1.68,0,0,1,.53,3.32l-10.45,1.6a1.63,1.63,0,0,1-.3.07Zm17.57-2.78a1.68,1.68,0,0,1-.26-3.34l10.45-1.65a1.68,1.68,0,0,1,.52,3.31L197,70.09a1.53,1.53,0,0,1-.3,0Z"/><path class="cls-2" d="M155.85,124.5a5.1,5.1,0,0,1-5-4.43l-.92-5.81a1.68,1.68,0,0,1,3.32-.52l.91,5.8a1.74,1.74,0,0,0,1.86,1.61l.29-.05,5.21-.8a1.68,1.68,0,0,1,.53,3.31l-5.22.8A8.28,8.28,0,0,1,155.85,124.5Zm65.78-10.37a1.66,1.66,0,0,1-1.65-1.7,1.68,1.68,0,0,1,1.39-1.63l5.23-.8a1.75,1.75,0,0,0,1.6-1.88,2.51,2.51,0,0,0,0-.27l-.93-5.8a1.68,1.68,0,0,1,3.32-.52l.92,5.8a4.85,4.85,0,0,1-2,5,6,6,0,0,1-2.41,1l-5.22.8a1.06,1.06,0,0,1-.25,0Zm-74.5-26.62a1.69,1.69,0,0,1-1.65-1.43l-.93-5.8a4.89,4.89,0,0,1,2-5,6,6,0,0,1,2.41-1l5.22-.8a1.68,1.68,0,0,1,.73,3.28l-.2,0-5.22.8a1.74,1.74,0,0,0-1.61,1.86,2.93,2.93,0,0,0,0,.29l.92,5.8a1.69,1.69,0,0,1-1.39,1.92,1.43,1.43,0,0,1-.29,0Zm77.3-12.25a1.68,1.68,0,0,1-1.66-1.41l-1-5.81a1.72,1.72,0,0,0-1.84-1.6,1.55,1.55,0,0,0-.31,0l-5.21.81a1.68,1.68,0,0,1-.54-3.32h0l5.23-.8a5.08,5.08,0,0,1,5.94,4c0,.1,0,.2,0,.29l.92,5.81a1.68,1.68,0,0,1-1.4,1.92h0Z"/><path class="cls-2" d="M232.73,77.81l-27.79,4.42s-7.05,1.11-5.93,8.16l.53,3.35s1.12,7.05,8.17,5.93l27.77-4.4Zm-20,14.81a4.55,4.55,0,0,1-3,1.82,4.37,4.37,0,0,1-.72.06,4.5,4.5,0,0,1-2.69-.89,4.56,4.56,0,1,1,6.38-1Z"/></g><path class="cls-2" d="M148,134.9a5.35,5.35,0,0,1-4.47-2.27,6.46,6.46,0,0,1-1.09-2.59l-9.2-58.13a5.48,5.48,0,0,1,2.19-5.51A6.43,6.43,0,0,1,138,65.33l88-13.94a5.46,5.46,0,0,1,5.49,2.19,6.25,6.25,0,0,1,1.08,2.59l9.2,58.13a5.62,5.62,0,0,1-4.51,6.54l-.27,0-88,13.94A7,7,0,0,1,148,134.9Zm-9.25-64V71l9.19,58.16.06.15h.12l88-13.94.15-.06v-.12L227,57.09l-.08-.14h-.11L138.9,70.84l-.2.08Zm-.29-2.8Z"/><path class="cls-2" d="M148.11,126.78l-8.76-55.35a2.75,2.75,0,0,1,2.23-3.19l.11,0,25-4.07,5.44-9.51L141.81,65.5a4.83,4.83,0,0,0-3.39,5.36l9,57.06s.66,4.16,4.71,3l14.1-4.11-14.93,2.37a2.76,2.76,0,0,1-3.2-2.23Z"/><path class="cls-2" d="M234.5,98.43l-6.61-41.79c-.14-.7-.48-.64-.8-.59l-41.92,6.64,34.62-41.26a6.83,6.83,0,0,1,7.06-2.52,8.71,8.71,0,0,1,3.27,1.61l35.31,29.63a6.82,6.82,0,0,1,2.51,7.05,8.42,8.42,0,0,1-1.61,3.27Zm-7.13-46.88a5.07,5.07,0,0,1,5,4.41l5.07,32,25.48-30.36a2.62,2.62,0,0,0,0-3.7,2.24,2.24,0,0,0-.38-.31L227.22,24a2.61,2.61,0,0,0-3.7,0,2.17,2.17,0,0,0-.31.37L196.34,56.38l30-4.75a5.51,5.51,0,0,1,1-.08Z"/><path class="cls-2" d="M175.73,63.36l-3.89-2.25L193,24.52a6.82,6.82,0,0,1,6.51-3.71,8.43,8.43,0,0,1,3.5,1l12.22,7.68-2.41,3.8-12.15-7.63a2.6,2.6,0,0,0-3.6.73,3.9,3.9,0,0,0-.19.35Z"/></svg>