<svg id="Layer_1" data-name="Layer 1" xmlns="http://www.w3.org/2000/svg" viewBox="0 0 400 150"><defs><style>.cls-1{fill:#fff;}</style></defs><title>graphic-saving-inverted</title><path class="cls-1" d="M158.55,95.55a1.27,1.27,0,0,1-.48-.07,1.56,1.56,0,0,1-1-2h0S158.76,88,155.93,85a5.49,5.49,0,0,0-5.5-1.39,3.75,3.75,0,0,0-2.68,3.13,4.44,4.44,0,0,0,1.05,3.69,2.79,2.79,0,0,0,2.49.74,1.33,1.33,0,0,0,1.17-.86,1.28,1.28,0,0,0-.16-1.2c-.07-.07-.23-.25-.77-.1a1.57,1.57,0,0,1-.82-3,3.81,3.81,0,0,1,3.89,1,4.36,4.36,0,0,1,.82,4.39,4.43,4.43,0,0,1-3.67,2.92,5.88,5.88,0,0,1-5.15-1.63,7.51,7.51,0,0,1-1.92-6.38,6.82,6.82,0,0,1,4.82-5.65,8.69,8.69,0,0,1,8.71,2.19c4.17,4.28,2,11.32,1.86,11.62a1.57,1.57,0,0,1-1.49,1.09"/><path class="cls-1" d="M230.41,82.34a2.81,2.81,0,1,1,2.78-2.85v0a2.81,2.81,0,0,1-2.78,2.81"/><path class="cls-1" d="M185.1,69.41a33.37,33.37,0,0,1,34.73,0V75a29.94,29.94,0,0,0-34.73,0Z"/><path class="cls-1" d="M217.31,24.87a21,21,0,0,0-14.9-6.21h0a21.11,21.11,0,0,0-21.08,21.05h0a21.1,21.1,0,0,0,21,21.11h0a21.06,21.06,0,0,0,14.93-35.95ZM202.38,56.13h0A16.4,16.4,0,0,1,186,39.73h0A16.39,16.39,0,0,1,202.4,23.39h0a16.37,16.37,0,0,1,0,32.74Z"/><path class="cls-1" d="M194.42,46.8a10.72,10.72,0,0,0,7,3.33v3h3.07V50a8.63,8.63,0,0,0,2.32-.7,6.58,6.58,0,0,0,1.89-1.24,5.51,5.51,0,0,0,1.26-1.76,5.25,5.25,0,0,0,.47-2.25,5.76,5.76,0,0,0-.58-2.65,5.88,5.88,0,0,0-1.52-1.84,8.63,8.63,0,0,0-2.12-1.23,18.06,18.06,0,0,0-2.36-.77,14.36,14.36,0,0,1-2.94-1,1.61,1.61,0,0,1-1-1.52,1.57,1.57,0,0,1,.28-.89,2.07,2.07,0,0,1,.74-.61,4,4,0,0,1,1-.34,5.05,5.05,0,0,1,2.35.09,6.51,6.51,0,0,1,2.09,1,7.77,7.77,0,0,1,.7.56l2.74-3.07a12,12,0,0,0-2-1.5,8,8,0,0,0-3.33-1V26.41h-3.07v2.85A7.26,7.26,0,0,0,197,31.15a5.37,5.37,0,0,0-1.58,4,5.18,5.18,0,0,0,1.44,3.77A9.13,9.13,0,0,0,201,41.17l.76.26a11.28,11.28,0,0,1,3.13,1.13,1.82,1.82,0,0,1,.93,1.58,1.78,1.78,0,0,1-.26,1,1.85,1.85,0,0,1-.7.63,2.74,2.74,0,0,1-.93.34,4.9,4.9,0,0,1-1,.09,6.76,6.76,0,0,1-3.27-.77,9.2,9.2,0,0,1-2.38-1.78Z"/><path class="cls-1" d="M251.69,78.11l-5.76-.36c-.1-1.27-.2-2.55-.31-3.81-1.39-17.5-1.39-17.5-3.2-18.71-2.78-1.87-7.59,1.06-11.41,4.94-3.13-2.33-4.69-3.66-7.46-5-1.09,1.61-4.17,4.16-5.56,5.55a31.66,31.66,0,0,1,11.22,6.61l2.89,2.42,2.23-3a17.51,17.51,0,0,1,3.29-3.48c.3,3.11.65,7.49,1,11.29.18,2.29.37,4.64.56,6.88l.25,3,9.4.56-1.1,17.42c-1.29.27-3.09.64-4.27.87l-2.55.52-.3,2.58c-.11,1-2.05,13.2-3.47,22.23h-6.26l-.61-13.41-4.81,2.3c-8.92,4.27-16,6-23.7,5.88s-13.44-1.87-23-6.88l-4.65-2.43-1.39,14.52h-6.4c-.79-4.63-2.88-18.06-2.89-29.18,0-19.19,8.34-33.34,22.19-39.34a17.59,17.59,0,0,1-4.4-5.74c-15.41,7.51-24.86,23.8-24.86,45.11h0c0,13.89,3,30.56,3.28,32a4.86,4.86,0,0,0,4.87,4.21h10.11a4.93,4.93,0,0,0,4.9-4.32l.62-6.26c8.05,3.78,14.08,5.23,21.49,5.37A53.14,53.14,0,0,0,223.65,126l.23,5a4.79,4.79,0,0,0,4.86,4.63h10a5.15,5.15,0,0,0,5-3.85l.07-.33c.49-3.09,2.57-16.06,3.44-21.75l3.47-.73.5-.14a5.36,5.36,0,0,0,3.47-4.86L256,83.25V83A4.91,4.91,0,0,0,251.69,78.11Z"/></svg>