<svg id="Layer_1" data-name="Layer 1" xmlns="http://www.w3.org/2000/svg" viewBox="0 0 400 150"><defs><style>.cls-1{fill:#fff;}</style></defs><title>graphic-borrowing-inverted</title><path class="cls-1" d="M114.73,88.66A3.73,3.73,0,0,1,111,85.3l-3.87-42a3.69,3.69,0,0,1,3.33-4h0l99-8.28a3.71,3.71,0,0,1,4,3.35l.55,6-5.18.48-.41-4.52-96,8,3.56,39,8.39-.71.44,5.18-9.87.82Z"/><path class="cls-1" d="M259.64,98V86.18l-14.52-3,.47,8.41a29.9,29.9,0,0,1,5.11,1.21,2.93,2.93,0,0,1-1.64,5.62l-.2-.07c-12.78-4.23-24.6,3.81-24.72,3.9l-1.88,1.29-1.72-1.5c-.15-.13-14.45-12.73-18.63-16.06-3.72-3-7.86-1.27-10.42.4l32.19,28.38a2.93,2.93,0,1,1-3.74,4.5l-.13-.12-15.57-13.73-23.42,5,12.84,8.35a22,22,0,0,0,8.91,4.58l16.5,4.94a19.09,19.09,0,0,0,9.2,0L259.74,124Z"/><path class="cls-1" d="M146.28,89.13a8.39,8.39,0,0,0,5.8,1.53l.45,2.29,2.36-.46-.46-2.39a6.8,6.8,0,0,0,1.69-.88A5.12,5.12,0,0,0,157.38,88a4.32,4.32,0,0,0,.71-1.54,4.65,4.65,0,0,0-2.29-5,6.47,6.47,0,0,0-1.81-.62,14.1,14.1,0,0,0-1.94-.25,11.2,11.2,0,0,1-2.45-.33,1.25,1.25,0,0,1-1-1,1.22,1.22,0,0,1,.08-.73,1.62,1.62,0,0,1,.49-.58,3.06,3.06,0,0,1,.7-.41,4.76,4.76,0,0,1,.82-.23,3.69,3.69,0,0,1,1.05-.07,5.14,5.14,0,0,1,.95.18,6.21,6.21,0,0,1,.82.3c.21.1.42.21.62.33l1.63-2.78a9.37,9.37,0,0,0-1.79-.82,6.64,6.64,0,0,0-2.73-.31l-.42-2.19-2.37.46.43,2.19a5.79,5.79,0,0,0-3.08,2.12,4.22,4.22,0,0,0-.62,3.33,4,4,0,0,0,1.68,2.69,7.15,7.15,0,0,0,3.54,1.1l.62.08a9.1,9.1,0,0,1,2.59.41,1.41,1.41,0,0,1,.95,1.08,1.44,1.44,0,0,1-.06.82,1.58,1.58,0,0,1-.41.58,2.09,2.09,0,0,1-.67.4,3.33,3.33,0,0,1-.82.23,5.26,5.26,0,0,1-2.64-.11,7.15,7.15,0,0,1-2.1-1Z"/><path class="cls-1" d="M210,77.09a8.57,8.57,0,0,0,5.8,1.53l.45,2.29,2.37-.46-.47-2.4a7,7,0,0,0,1.7-.88,5.66,5.66,0,0,0,1.26-1.23,4.74,4.74,0,0,0,.71-1.55,4.2,4.2,0,0,0,0-1.8,4.7,4.7,0,0,0-.82-2,4.77,4.77,0,0,0-1.45-1.19,6.8,6.8,0,0,0-1.81-.62,12.7,12.7,0,0,0-1.94-.24,12.56,12.56,0,0,1-2.45-.33,1.29,1.29,0,0,1-1-1,1.08,1.08,0,0,1,.08-.73,1.59,1.59,0,0,1,.48-.58,3,3,0,0,1,.71-.41,3.52,3.52,0,0,1,.78-.24,3.69,3.69,0,0,1,1-.06,4.41,4.41,0,0,1,1,.17,5.6,5.6,0,0,1,.81.3,6.25,6.25,0,0,1,.63.33l1.63-2.78a10.9,10.9,0,0,0-1.79-.86A6.66,6.66,0,0,0,215,62l-.42-2.19-2.37.46.43,2.19a5.77,5.77,0,0,0-3.08,2.13A4.2,4.2,0,0,0,209,68a4,4,0,0,0,1.68,2.69,7.26,7.26,0,0,0,3.53,1.11l.63.08a9,9,0,0,1,2.58.4,1.47,1.47,0,0,1,.9,1.9,1.46,1.46,0,0,1-.42.59,2.38,2.38,0,0,1-.67.4,4,4,0,0,1-.77.22,5.26,5.26,0,0,1-2.64-.11,7.15,7.15,0,0,1-2.1-1Z"/><path class="cls-1" d="M281.19,84.82h-16.3v46.77h16.3a7.77,7.77,0,0,0,7.77-7.77h0V92.6a7.77,7.77,0,0,0-7.77-7.78Zm-4.25,18.51a5.2,5.2,0,1,1,5.2-5.19,5.19,5.19,0,0,1-5.2,5.19Z"/><path class="cls-1" d="M192.55,95.09l-52.47,10.27L132.27,67l94.57-17.57,7.81,38.44-17.74,3.26,5,4.36,3.78-.69a38.44,38.44,0,0,1,13.48-3.45,2.49,2.49,0,0,0,.23-.31,4,4,0,0,0,.62-3.09L231.75,47.3A4.07,4.07,0,0,0,227,44.1l-96.81,18a4.07,4.07,0,0,0-3.28,4.74s0,.05,0,.08l8.26,40.62a4.08,4.08,0,0,0,4,3.26,3.8,3.8,0,0,0,.82-.08l57.47-11.25Z"/></svg>