<svg id="Layer_1" data-name="Layer 1" xmlns="http://www.w3.org/2000/svg" viewBox="0 0 400 150"><defs><style>.cls-1{fill:#fff;}</style></defs><title>graphic-planning-inverted</title><path class="cls-1" d="M212.46,132.49l-33.37-10.42a2.61,2.61,0,0,0-1.36,0l-30.65,8a2.51,2.51,0,0,1-3.06-1.8,2.22,2.22,0,0,1-.08-.63V59.51a2.52,2.52,0,0,1,1.87-2.43l24.86-6.43a2.53,2.53,0,0,1,3.06,1.81l.31,1.22a2.51,2.51,0,0,1-1.79,3.06h0L152.1,62a2.5,2.5,0,0,0-1.88,2.43v55.11a2.51,2.51,0,0,0,2.51,2.51,2.65,2.65,0,0,0,.63-.08l24.48-6.4a2.58,2.58,0,0,1,1.35,0l34.3,10.32a2.5,2.5,0,0,0,1.64-.07L247.67,113a2.52,2.52,0,0,0,1.6-2.34V56a2.51,2.51,0,0,0-2.51-2.51,2.27,2.27,0,0,0-.92.17l-20.69,8.1A2.52,2.52,0,0,1,222,58.22l1.06-2A2.52,2.52,0,0,1,224.41,55l25.14-9.57A4.41,4.41,0,0,1,255.27,48a4.14,4.14,0,0,1,.3,1.63V115A2.51,2.51,0,0,1,254,117.3l-39.86,15.11A2.56,2.56,0,0,1,212.46,132.49Z"/><path class="cls-1" d="M199.74,83l-.89-1.34c-2.27-3.36-13.78-20.43-17-25.78a20.92,20.92,0,1,1,35.88,0c-3.4,5.68-16.94,25.73-17.09,25.93Zm0-56.8a18.87,18.87,0,0,0-16.16,28.58c2.95,4.87,13,19.89,16.16,24.53,3-4.51,13.31-19.77,16.21-24.57a18.87,18.87,0,0,0-16.21-28.54Z"/><path class="cls-1" d="M199.75,25.21a19.88,19.88,0,0,0-17,30.14c3.49,5.8,16.9,25.65,17,25.85,0,0,13.64-20.17,17.07-25.89a19.89,19.89,0,0,0-17.07-30.1Zm0,26.2a8.4,8.4,0,1,1,.42,0Z"/><rect class="cls-1" x="179.64" y="96.09" width="10.62" height="4.13" transform="translate(-24.4 102.05) rotate(-29.02)"/><rect class="cls-1" x="213.46" y="94.42" width="4.13" height="13.72" transform="translate(18.5 235.02) rotate(-59.34)"/><rect class="cls-1" x="243.62" y="100.37" width="9.71" height="4.13" transform="translate(-19.35 124.81) rotate(-27.18)"/><polygon class="cls-1" points="160.78 106.41 152.79 105.08 153.14 100.97 161.45 102.34 160.78 106.41"/><path class="cls-1" d="M231.39,113.3l-6-3.6,2.13-3.53,4.07,2.44,6.52-3.16,1.8,3.69Zm-59.87-5.16-5.43-.89.66-4.07,4,.65,3.52-2,2.06,3.58Zm32.95-11.21-6.68-3.87-3.12,1.79-2.06-3.58,5.2-2.94,8.76,5Z"/></svg>